<svg width="141" height="140" viewBox="0 0 141 140" fill="none" xmlns="http://www.w3.org/2000/svg">
<path d="M129.757 0C126.872 0 123.904 1.05808 121.713 3.2337L117.595 7.41848L133.492 23.2065C133.48 23.2184 137.705 19.1168 137.705 19.1168C142.098 14.7537 142.098 7.59681 137.705 3.2337C135.503 1.0462 132.642 0 129.757 0ZM112.616 11.9837L42.997 81.1277L42.8054 82.0788L39.9326 96.8206L38.975 101.291L43.4758 100.34L58.3188 97.4864L59.2764 97.2962L128.895 28.1522L124.49 23.8723L56.3078 91.4946L48.8384 84.0761L116.925 16.3587L112.616 11.9837ZM3.06437 24.3478C1.3646 24.3478 0 25.715 0 27.3913V136.957C0 138.633 1.3646 140 3.06437 140H113.382C115.082 140 116.446 138.633 116.446 136.957V48.6956L110.317 54.7826V133.913H6.12874V30.4348H85.8024L91.9312 24.3478H3.06437Z" fill="#EAEAEA"/>
</svg>
