<svg width="140" height="142" viewBox="0 0 140 142" fill="none" xmlns="http://www.w3.org/2000/svg">
<path d="M2.29162 0.0165234C0.9367 0.324961 -0.0216591 1.53668 0.000372146 2.92465V138.285C0.0113876 139.882 1.31123 141.182 2.9085 141.193H87.5085C89.1058 141.182 90.4056 139.882 90.4166 138.285V110.085H84.6004V135.377H5.81662V5.83277H84.6004V31.1246H90.4166V2.92465C90.4056 1.32738 89.1058 0.0275389 87.5085 0.0165234H2.9085C2.6992 -0.00550781 2.50092 -0.00550781 2.29162 0.0165234ZM109.804 42.669C108.747 42.8563 107.898 43.6274 107.601 44.6518C107.304 45.6873 107.612 46.7889 108.394 47.5159L128.575 67.7846H45.2085C45.1204 67.7846 45.0322 67.7846 44.9441 67.7846C43.3909 67.8618 42.1792 69.1836 42.2563 70.7368C42.3334 72.29 43.6553 73.5018 45.2085 73.4246H128.575L108.394 93.6934C107.557 94.3764 107.171 95.4669 107.414 96.5244C107.656 97.5709 108.482 98.3971 109.529 98.6394C110.586 98.8818 111.677 98.4962 112.36 97.659L137.475 72.6315L139.414 70.6046L137.475 68.5778L112.36 43.5503C111.776 42.9224 110.928 42.6029 110.068 42.669C109.98 42.669 109.892 42.669 109.804 42.669Z" fill="#EAEAEA"/>
</svg>
