<svg width="146" height="140" viewBox="0 0 146 140" fill="none" xmlns="http://www.w3.org/2000/svg">
<g clip-path="url(#clip0_161_2)">
<path d="M66.9857 129.461L103.061 52.7631C104.687 49.3101 104.018 45.2189 101.389 42.4606C98.7551 39.7023 94.6958 38.848 91.1767 40.3095L12.9084 72.7918C10.1611 73.9342 8.40668 76.6514 8.49929 79.6258C8.5919 82.6003 10.5109 85.2042 13.32 86.1717L30.0819 91.9508L2.21745 118.556C-0.643075 121.284 -0.745972 125.817 1.98079 128.679L10.6704 137.782C13.4023 140.643 17.9298 140.746 20.7903 138.019L48.6547 111.413L53.6503 128.426C54.4889 131.283 57.0047 133.32 59.9682 133.547C62.9316 133.778 65.7304 132.147 66.996 129.456L66.9857 129.461Z" fill="white"/>
<path d="M54.0465 42.8671C55.5385 34.2062 59.7212 25.9261 66.569 19.3905C83.5366 3.19055 110.418 3.81837 126.614 20.7851C142.81 37.757 142.183 64.6454 125.22 80.8454C117.4 88.3124 107.476 92.2029 97.4585 92.5682L93.8726 100.195C106.971 100.725 120.26 96.1448 130.493 86.3723C150.512 67.2597 151.248 35.5339 132.14 15.5155C113.032 -4.50804 81.3141 -5.24393 61.3007 13.8687C52.004 22.7458 46.8643 34.3503 45.9485 46.2326L54.0567 42.8671H54.0465Z" fill="white"/>
<path d="M86.9733 31.4221C87.889 31.0413 88.8254 30.7377 89.7669 30.4907C96.9851 28.2418 105.181 30.079 110.753 35.9198C116.33 41.7607 117.78 50.0305 115.203 57.1424C114.915 58.0739 114.565 58.995 114.143 59.8904L107.522 73.9651C109.914 72.7969 112.173 71.2479 114.205 69.3078C124.803 59.1906 125.194 42.3936 115.074 31.7927C104.96 21.1917 88.1669 20.8006 77.5685 30.923C75.5363 32.863 73.8848 35.045 72.6089 37.3865L86.9733 31.4221Z" fill="white"/>
</g>
<defs>
<clipPath id="clip0_161_2">
<rect width="146" height="140" fill="white"/>
</clipPath>
</defs>
</svg>
