<svg width="178" height="178" viewBox="0 0 178 178" fill="none" xmlns="http://www.w3.org/2000/svg">
<path d="M89 0C39.8925 0 0 39.8925 0 89C0 138.108 39.8925 178 89 178C138.108 178 178 138.108 178 89C178 39.8925 138.108 0 89 0ZM89 7.73913C133.925 7.73913 170.261 44.075 170.261 89C170.261 133.925 133.925 170.261 89 170.261C44.075 170.261 7.73913 133.925 7.73913 89C7.73913 44.075 44.075 7.73913 89 7.73913ZM88.9395 34.7732C88.3567 34.7823 87.7834 34.923 87.2626 35.1847C86.7417 35.4465 86.2867 35.8225 85.9316 36.2847C85.9265 36.2923 85.9214 36.2998 85.9164 36.3074L47.5684 74.6554C47.1971 75.012 46.9006 75.439 46.6963 75.9116C46.492 76.3842 46.3841 76.8928 46.3789 77.4076C46.3737 77.9224 46.4712 78.4331 46.6658 78.9098C46.8604 79.3864 47.1481 79.8194 47.5122 80.1835C47.8762 80.5475 48.3093 80.8353 48.7859 81.0299C49.2625 81.2245 49.7732 81.322 50.288 81.3168C50.8029 81.3115 51.3114 81.2036 51.784 80.9993C52.2566 80.7951 52.6837 80.4986 53.0402 80.1272L85.1304 48.037V139.304C85.1232 139.817 85.2179 140.326 85.4091 140.802C85.6003 141.278 85.8842 141.711 86.2442 142.076C86.6043 142.441 87.0333 142.731 87.5064 142.929C87.9795 143.127 88.4872 143.229 89 143.229C89.5128 143.229 90.0205 143.127 90.4936 142.929C90.9667 142.731 91.3957 142.441 91.7557 142.076C92.1158 141.711 92.3997 141.278 92.5909 140.802C92.7821 140.326 92.8768 139.817 92.8696 139.304V48.037L124.96 80.1272C125.316 80.4986 125.743 80.7951 126.216 80.9993C126.689 81.2036 127.197 81.3115 127.712 81.3168C128.227 81.322 128.737 81.2245 129.214 81.0299C129.691 80.8353 130.124 80.5475 130.488 80.1835C130.852 79.8194 131.14 79.3864 131.334 78.9098C131.529 78.4331 131.626 77.9224 131.621 77.4076C131.616 76.8928 131.508 76.3842 131.304 75.9116C131.099 75.439 130.803 75.012 130.432 74.6554L92.0609 36.2847C91.694 35.8073 91.2209 35.4221 90.679 35.1597C90.1371 34.8973 89.5415 34.765 88.9395 34.7732Z" fill="#EAEAEA"/>
</svg>
